<?xml version="1.0" encoding="utf-8"?>
<svg xmlns="http://www.w3.org/2000/svg" viewBox="13.5975 65.451 475.9654 474.82" width="475.965px" height="474.82px" preserveAspectRatio="none"><path d="M 183.011 65.451 C 155.411 92.331 144.311 117.291 142.411 140.561 C 140.711 161.771 146.711 182.071 157.011 201.371 C 168.211 198.571 180.211 198.671 191.711 202.271 C 196.211 183.171 202.211 163.671 216.011 146.271 C 230.411 128.211 252.911 113.171 288.511 102.801 C 266.511 85.851 240.411 74.601 212.611 69.171 C 202.411 67.181 192.511 65.941 183.011 65.451 Z M 157.911 65.861 C 126.311 68.621 99.411 80.051 77.641 97.691 C 61.121 111.051 47.451 128.131 36.991 147.971 L 38.371 147.771 C 44.651 192.771 69.961 218.171 113.811 231.371 C 120.811 221.471 129.911 213.471 140.111 207.971 C 129.311 187.071 122.511 163.871 124.511 139.111 C 126.411 115.351 136.611 90.601 157.911 65.861 Z M 304.711 117.111 C 264.711 126.801 243.211 141.101 230.111 157.471 C 218.111 172.671 212.911 190.271 208.511 209.671 C 215.811 213.871 221.411 218.871 225.611 224.471 C 229.611 229.871 232.211 235.671 234.211 241.571 C 267.611 225.871 310.411 208.371 352.211 211.471 C 345.211 172.171 328.211 140.661 304.711 117.111 Z M 25.911 173.271 C 21.081 186.871 17.541 201.371 15.391 216.571 C 10.851 248.571 15.081 284.071 26.371 316.471 C 56.081 319.371 80.131 313.871 99.111 294.671 C 98.511 289.171 98.311 283.571 98.411 277.971 C 98.611 266.971 100.911 256.571 104.811 247.271 C 66.101 234.371 38.111 209.971 25.911 173.271 Z M 343.911 229.171 L 341.311 229.171 L 334.711 229.471 C 332.511 229.671 330.411 229.871 328.311 230.071 C 295.011 233.871 260.011 249.071 232.211 262.371 L 225.011 265.771 C 224.011 266.671 222.911 267.571 221.911 268.571 C 221.911 268.571 198.911 250.471 166.811 243.871 C 143.711 239.171 150.411 277.371 168.311 292.871 C 187.211 309.371 205.111 309.171 205.111 309.171 C 194.111 329.471 184.811 347.371 176.311 363.771 C 199.311 369.471 230.211 368.471 271.211 356.371 L 282.911 352.871 L 282.711 365.071 C 282.311 392.571 256.811 418.771 220.811 433.371 C 196.311 443.271 166.211 447.371 134.311 440.871 C 116.111 470.771 94.411 500.971 60.161 540.271 L 349.311 540.271 C 349.211 529.971 349.511 519.471 349.911 508.671 L 360.811 513.971 L 352.311 484.871 L 367.911 489.071 L 350.911 433.671 C 350.111 420.471 348.411 407.571 345.311 395.171 C 389.211 405.471 443.811 419.471 471.311 412.571 C 479.311 410.571 492.411 384.971 489.011 368.671 C 483.711 342.771 448.711 332.371 430.611 316.271 C 430.611 316.271 418.111 287.271 407.911 273.071 C 396.211 256.771 375.211 238.971 366.211 231.571 L 361.411 230.771 C 355.711 229.771 349.911 229.171 343.911 229.171 Z M 346.911 269.971 C 367.211 273.371 390.111 279.671 386.311 308.671 C 361.611 306.771 337.511 305.071 346.911 269.971 Z M 103.011 315.271 C 83.401 330.471 59.411 335.871 33.761 334.871 C 48.031 366.371 69.321 392.971 95.811 407.671 C 114.111 396.671 126.211 374.771 121.811 351.271 C 112.911 340.771 106.711 328.371 103.011 315.271 Z M 140.411 367.871 C 138.511 387.071 128.711 404.471 114.511 416.371 C 138.411 425.571 161.411 427.671 182.011 424.971 C 190.811 409.271 190.211 396.671 184.711 383.571 C 167.211 381.271 152.511 375.771 140.411 367.871 Z M 261.111 377.471 C 239.911 382.671 220.811 385.071 203.911 384.871 C 206.911 396.071 207.111 408.071 203.411 420.471 C 207.011 419.271 210.611 418.071 214.011 416.671 C 237.611 407.171 254.211 391.271 261.111 377.471 Z" style="stroke-width: 1; fill: rgb(135, 16, 255);" id="object-0" transform="matrix(1, 0, 0, 1, -1.4210854715202004e-14, -1.4210854715202004e-14)"/></svg>